<svg xmlns="http://www.w3.org/2000/svg" width="700.000000pt" height="700.000000pt" viewBox="0 0 32 32">
  <path d="M0 0h32v32H0z"/>
  <path fill="#fff" d="M0 5h1V4h3v1h4v3h1V2h3v3h1V4h3v4h1V6h1V5h2v3h1V6h1V5h2V4h2v1h3V4h3V0H0zM17.6 20.1c-.5-.4-1-1-1.8-1.9-1 1.2-1.9 2.1-2.8 2.7-1.1.7-2.5 1-4.1 1-2 0-3.6-.5-4.9-1.6-1.4-1.1-2.1-2.6-2.1-4.4 0-1.7.7-3.2 2.1-4.4 1.2-1 2.9-1.6 5-1.6 1.1 0 2 .2 2.8.5.9.3 1.7.8 2.3 1.4.6.5 1.2 1.2 1.8 1.9 1-1.2 1.9-2.1 2.8-2.7 1.1-.7 2.5-1 4.1-1 2 0 3.6.5 4.9 1.6 1.4 1.1 2.1 2.6 2.1 4.4 0 1.7-.7 3.2-2.1 4.4-1.2 1-2.9 1.6-5 1.6-1.1 0-2-.2-2.8-.5-.7-.3-1.5-.7-2.3-1.4m-8.9-.2c2.4 0 4.3-1.2 5.8-3.7-1.9-2.7-3.8-4.1-5.8-4.1-1.5 0-2.6.4-3.3 1.1-.8.8-1.2 1.7-1.2 2.8 0 1.2.4 2.1 1.2 2.8.8.7 1.9 1.1 3.3 1.1M23 12.1c-2.2 0-4.1 1.2-5.8 3.7 1.8 2.7 3.8 4.1 5.8 4.1 1.5 0 2.6-.4 3.3-1.1.8-.8 1.2-1.7 1.2-2.8 0-1.2-.4-2.1-1.2-2.8-.8-.7-1.9-1.1-3.3-1.1"/>
</svg>
